<svg xmlns="http://www.w3.org/2000/svg" xmlns:svg="http://www.w3.org/2000/svg" id="svg7384" width="16" height="16" version="1.1"><metadata id="metadata90"/><title id="title9167">Gnome Symbolic Icon Theme</title><g id="layer9" transform="translate(-83.0002,-175)" style="display:inline"><path style="color:#000;display:inline;overflow:visible;visibility:visible;fill:#3d3846;fill-opacity:1;stroke:none;stroke-width:.99999976;marker:none;enable-background:new" id="rect3993" d="m 97.0002,178 c 0,-0.97 -0.83513,-2 -2,-2 h -10 v 14 l 10,0.0254 c 1.125,0.0312 1.99609,-1.05211 1.99609,-2.02539 h 0.004 c 0,0 -1,1.03038 -1.99637,1.03038 L 86.0002,189 v -3 h 9.03125 c 0.96925,0 1.96875,-1.0155 1.96875,-2 z m -7,0 h 3 l 2,6 h -2 l -0.73438,-2 h -1.49804 l -0.76758,2 h -2 z m 1.49023,1.79687 L 91.0002,181 h 1 z"/><path style="color:#000;display:inline;overflow:visible;visibility:visible;opacity:.3;fill:#3d3846;fill-opacity:1;fill-rule:nonzero;stroke:none;stroke-width:.99999976;marker:none;enable-background:new" id="rect4006" d="m 86.0002,186 h 8.96875 l 2.03125,-2 v 4 c 0,0 -0.78466,1 -2,1 h -9 z"/></g></svg>